<svg xmlns="http://www.w3.org/2000/svg" width="64" height="64" viewBox="0 0 64 64">
  <!-- Background circle -->
  <circle cx="32" cy="32" r="30" fill="#3498db" />
  
  <!-- Globe grid lines -->
  <g stroke="#ecf0f1" stroke-width="1" fill="none">
    <!-- Horizontal lines -->
    <ellipse cx="32" cy="32" rx="24" ry="8" />
    <ellipse cx="32" cy="32" rx="24" ry="16" />
    <ellipse cx="32" cy="32" rx="24" ry="24" />
    
    <!-- Vertical lines -->
    <line x1="8" y1="32" x2="56" y2="32" />
    <path d="M32,8 C24,16 24,48 32,56" />
    <path d="M32,8 C40,16 40,48 32,56" />
  </g>
  
  <!-- Airplane -->
  <g fill="#e74c3c" transform="translate(32, 32) rotate(45) translate(-16, -16)">
    <path d="M24,16 L32,18 L32,14 L24,16 Z" />
    <path d="M8,18 L24,16 L24,14 L8,10 L4,12 L8,18 Z" />
    <path d="M8,18 L4,24 L6,24 L12,20 L8,18 Z" />
    <path d="M24,16 L24,14 L20,14 L20,16 L24,16 Z" />
  </g>
  
  <!-- Location pin -->
  <g fill="#e74c3c">
    <circle cx="32" cy="24" r="4" />
    <path d="M32,28 C28,28 24,24 24,20 C24,16 28,12 32,12 C36,12 40,16 40,20 C40,24 36,28 32,28 Z M32,16 C30,16 28,18 28,20 C28,22 30,24 32,24 C34,24 36,22 36,20 C36,18 34,16 32,16 Z" />
  </g>
</svg>